<?xml version="1.0" encoding="UTF-8"?>
<svg width="1059px" height="482px" viewBox="0 0 1059 482" version="1.1" xmlns="http://www.w3.org/2000/svg" xmlns:xlink="http://www.w3.org/1999/xlink">
    <!-- Generator: Sketch 53.2 (72643) - https://sketchapp.com -->
    <title>Group 4</title>
    <desc>Created with Sketch.</desc>
    <g id="Page-1" stroke="none" stroke-width="1" fill="none" fill-rule="evenodd">
        <g id="Group-4">
            <path d="M117.4392,-0.0004 L0.0002,116.2396 L0.0002,116.3926 L0.0002,481.9996 L223.2092,481.9996 L223.2092,343.2546 L246.5622,343.2546 L246.5622,481.9996 L469.7672,481.9996 L469.7672,116.3926 L352.3272,0.1506 L117.4392,-0.0004 Z M739.6792,0.1506 L739.6792,138.8966 L716.3312,138.8966 L716.3312,0.1506 L493.1192,0.1506 L493.1192,481.9996 L716.3312,481.9996 L716.3312,343.2546 L739.6792,343.2546 L739.6792,481.9996 L962.8922,481.9996 L962.8922,0.1506 L739.6792,0.1506 Z" id="Fill-1" fill="#D6D7D8"></path>
            <path d="M986.0039,36.118 C986.0039,56.677 1001.9219,72.248 1022.1269,72.248 C1042.3329,72.248 1058.2519,56.677 1058.2519,36.118 C1058.2519,15.58 1042.3329,0 1022.1269,0 C1001.9219,0 986.0039,15.58 986.0039,36.118 L986.0039,36.118 Z M1053.8209,36.118 C1053.8209,54.621 1040.2749,67.817 1022.1269,67.817 C1003.9799,67.817 990.4349,54.621 990.4349,36.118 C990.4349,17.638 1003.9799,4.431 1022.1269,4.431 C1040.2749,4.431 1053.8209,17.638 1053.8209,36.118 L1053.8209,36.118 Z M1019.5529,37.312 C1020.0679,37.312 1020.5829,37.655 1020.9259,37.998 L1030.3539,53.421 C1030.6949,53.764 1031.2079,54.107 1031.7199,54.107 L1038.0459,54.107 C1038.3889,54.107 1038.7319,53.764 1038.3889,53.421 L1028.9879,37.655 C1028.6459,37.312 1028.8169,36.971 1029.3289,36.8 C1033.9399,35.606 1036.3309,32.365 1036.3309,27.903 C1036.3309,21.225 1032.0619,18.153 1024.1859,18.153 L1010.1489,18.153 C1009.6359,18.153 1009.2949,18.494 1009.2949,19.006 L1009.2949,53.25 C1009.2949,53.764 1009.6359,54.107 1010.1489,54.107 L1016.1259,54.107 C1016.6379,54.107 1016.9799,53.764 1016.9799,53.25 L1016.9799,38.169 C1016.9799,37.655 1017.3229,37.312 1017.8379,37.312 L1019.5529,37.312 Z M1017.8379,31.853 C1017.3229,31.853 1016.9799,31.51 1016.9799,30.995 L1016.9799,25.498 C1016.9799,24.983 1017.3229,24.639 1017.8379,24.639 L1024.5289,24.639 C1026.9309,24.639 1028.4749,25.842 1028.4749,28.246 C1028.4749,30.651 1026.9309,31.853 1024.5289,31.853 L1017.8379,31.853 Z" id="Fill-2" fill="#D5D6D7"></path>
        </g>
    </g>
</svg>